<svg width="29" height="29" viewBox="0 0 29 29" fill="none" xmlns="http://www.w3.org/2000/svg">
<rect width="29" height="29" fill="#1F1E1E" fill-opacity="0.945098"/>
<g id="Liste des patients">
<rect width="1728" height="1117" transform="translate(-994 -308)" fill="white"/>
<g id="Group 3516">
<g id="Frame 93">
<rect x="-490.5" y="-93.5" width="699" height="138" fill="white"/>
<rect x="-490.5" y="-93.5" width="699" height="138" stroke="#F0F0F0"/>
<g id="Group 3515">
<path id="Rectangle 356" d="M-327 14C-327 4.61116 -319.389 -3 -310 -3H28C37.3888 -3 45 4.61116 45 14V14C45 23.3888 37.3888 31 28 31H-310C-319.389 31 -327 23.3888 -327 14V14Z" fill="#D9D9D9" fill-opacity="0.05"/>
<g id="healthicons:qr-code-outline">
<g id="Group">
<path id="Vector" d="M3.625 5.4375C3.625 4.9568 3.81596 4.49578 4.15587 4.15587C4.49578 3.81596 4.9568 3.625 5.4375 3.625H9.0625V4.83333H5.4375C5.27727 4.83333 5.12359 4.89699 5.01029 5.01029C4.89699 5.12359 4.83333 5.27727 4.83333 5.4375V9.0625H3.625V5.4375Z" fill="#C6C6C6"/>
<path id="Vector_2" fill-rule="evenodd" clip-rule="evenodd" d="M8.45866 8.46094C8.29842 8.46094 8.14475 8.52459 8.03145 8.63789C7.91815 8.7512 7.85449 8.90487 7.85449 9.0651V11.4818C7.85449 11.642 7.91815 11.7957 8.03145 11.909C8.14475 12.0223 8.29842 12.0859 8.45866 12.0859H10.8753C11.0356 12.0859 11.1892 12.0223 11.3025 11.909C11.4158 11.7957 11.4795 11.642 11.4795 11.4818V9.0651C11.4795 8.90487 11.4158 8.7512 11.3025 8.63789C11.1892 8.52459 11.0356 8.46094 10.8753 8.46094H8.45866ZM9.06283 9.66927V10.8776H10.2712V9.66927H9.06283ZM8.45866 16.9193C8.29842 16.9193 8.14475 16.9829 8.03145 17.0962C7.91815 17.2095 7.85449 17.3632 7.85449 17.5234V19.9401C7.85449 20.1003 7.91815 20.254 8.03145 20.3673C8.14475 20.4806 8.29842 20.5443 8.45866 20.5443H10.8753C11.0356 20.5443 11.1892 20.4806 11.3025 20.3673C11.4158 20.254 11.4795 20.1003 11.4795 19.9401V17.5234C11.4795 17.3632 11.4158 17.2095 11.3025 17.0962C11.1892 16.9829 11.0356 16.9193 10.8753 16.9193H8.45866ZM9.06283 18.1276V19.3359H10.2712V18.1276H9.06283Z" fill="#C6C6C6"/>
<path id="Vector_3" d="M7.85449 15.1016C7.85449 15.2211 7.88993 15.3379 7.95631 15.4372C8.0227 15.5366 8.11706 15.614 8.22745 15.6597C8.33785 15.7055 8.45933 15.7174 8.57653 15.6941C8.69372 15.6708 8.80138 15.6133 8.88587 15.5288C8.97036 15.4443 9.02791 15.3366 9.05122 15.2194C9.07453 15.1022 9.06256 14.9808 9.01684 14.8704C8.97111 14.76 8.89367 14.6656 8.79432 14.5992C8.69496 14.5328 8.57815 14.4974 8.45866 14.4974C8.61889 14.4974 8.77257 14.4337 8.88587 14.3204C8.99917 14.2071 9.06283 14.0535 9.06283 13.8932C9.06283 14.0535 9.12648 14.2071 9.23978 14.3204C9.35309 14.4337 9.50676 14.4974 9.66699 14.4974C9.82723 14.4974 9.9809 14.4337 10.0942 14.3204C10.2075 14.2071 10.2712 14.0535 10.2712 13.8932C10.2712 13.733 10.2075 13.5793 10.0942 13.466C9.9809 13.3527 9.82723 13.2891 9.66699 13.2891C9.50676 13.2891 9.35309 13.3527 9.23978 13.466C9.12648 13.5793 9.06283 13.733 9.06283 13.8932C9.06283 13.7737 9.02739 13.6569 8.96101 13.5576C8.89462 13.4582 8.80026 13.3808 8.68986 13.3351C8.57947 13.2893 8.45799 13.2774 8.34079 13.3007C8.2236 13.324 8.11594 13.3815 8.03145 13.466C7.94695 13.5505 7.88941 13.6582 7.8661 13.7754C7.84279 13.8926 7.85475 14.014 7.90048 14.1244C7.94621 14.2348 8.02365 14.3292 8.123 14.3956C8.22236 14.462 8.33917 14.4974 8.45866 14.4974C8.29842 14.4974 8.14475 14.561 8.03145 14.6744C7.91815 14.7877 7.85449 14.9413 7.85449 15.1016ZM10.2712 15.1016C10.2712 15.2618 10.3348 15.4155 10.4481 15.5288C10.5614 15.6421 10.7151 15.7057 10.8753 15.7057C11.0356 15.7057 11.1892 15.6421 11.3025 15.5288C11.4158 15.4155 11.4795 15.2618 11.4795 15.1016C11.4795 15.2211 11.5149 15.3379 11.5813 15.4372C11.6477 15.5366 11.7421 15.614 11.8525 15.6597C11.9629 15.7055 12.0843 15.7174 12.2015 15.6941C12.3187 15.6708 12.4264 15.6133 12.5109 15.5288C12.5954 15.4443 12.6529 15.3366 12.6762 15.2194C12.6995 15.1022 12.6876 14.9808 12.6418 14.8704C12.5961 14.76 12.5187 14.6656 12.4193 14.5992C12.32 14.5328 12.2032 14.4974 12.0837 14.4974C12.2439 14.4974 12.3976 14.4337 12.5109 14.3204C12.6242 14.2071 12.6878 14.0535 12.6878 13.8932C12.6878 13.733 12.6242 13.5793 12.5109 13.466C12.3976 13.3527 12.2439 13.2891 12.0837 13.2891C11.9234 13.2891 11.7698 13.3527 11.6564 13.466C11.5431 13.5793 11.4795 13.733 11.4795 13.8932C11.4795 14.0535 11.5431 14.2071 11.6564 14.3204C11.7698 14.4337 11.9234 14.4974 12.0837 14.4974C11.9234 14.4974 11.7698 14.561 11.6564 14.6744C11.5431 14.7877 11.4795 14.9413 11.4795 15.1016C11.4795 14.9413 11.4158 14.7877 11.3025 14.6744C11.1892 14.561 11.0356 14.4974 10.8753 14.4974C10.7151 14.4974 10.5614 14.561 10.4481 14.6744C10.3348 14.7877 10.2712 14.9413 10.2712 15.1016Z" fill="#C6C6C6"/>
<path id="Vector_4" d="M13.8958 15.1068C13.8958 15.267 13.9595 15.4207 14.0728 15.534C14.1861 15.6473 14.3398 15.7109 14.5 15.7109C14.3398 15.7109 14.1861 15.7746 14.0728 15.8879C13.9595 16.0012 13.8958 16.1549 13.8958 16.3151C13.8958 16.1956 13.8604 16.0788 13.794 15.9794C13.7276 15.8801 13.6333 15.8027 13.5229 15.7569C13.4125 15.7112 13.291 15.6992 13.1738 15.7225C13.0566 15.7459 12.949 15.8034 12.8645 15.8879C12.78 15.9724 12.7224 16.08 12.6991 16.1972C12.6758 16.3144 12.6878 16.4359 12.7335 16.5463C12.7792 16.6567 12.8567 16.7511 12.956 16.8175C13.0554 16.8838 13.1722 16.9193 13.2917 16.9193C13.1314 16.9193 12.9778 16.9829 12.8645 17.0962C12.7512 17.2095 12.6875 17.3632 12.6875 17.5234C12.6875 17.6837 12.7512 17.8373 12.8645 17.9506C12.9778 18.064 13.1314 18.1276 13.2917 18.1276C13.4519 18.1276 13.6056 18.064 13.7189 17.9506C13.8322 17.8373 13.8958 17.6837 13.8958 17.5234C13.8958 17.3632 13.8322 17.2095 13.7189 17.0962C13.6056 16.9829 13.4519 16.9193 13.2917 16.9193C13.4519 16.9193 13.6056 16.8556 13.7189 16.7423C13.8322 16.629 13.8958 16.4753 13.8958 16.3151C13.8958 16.4753 13.9595 16.629 14.0728 16.7423C14.1861 16.8556 14.3398 16.9193 14.5 16.9193C14.6602 16.9193 14.8139 16.8556 14.9272 16.7423C15.0405 16.629 15.1042 16.4753 15.1042 16.3151C15.1042 16.4753 15.1678 16.629 15.2811 16.7423C15.3944 16.8556 15.5481 16.9193 15.7083 16.9193C15.8686 16.9193 16.0222 16.8556 16.1355 16.7423C16.2488 16.629 16.3125 16.4753 16.3125 16.3151C16.3125 16.1549 16.2488 16.0012 16.1355 15.8879C16.0222 15.7746 15.8686 15.7109 15.7083 15.7109C15.5481 15.7109 15.3944 15.7746 15.2811 15.8879C15.1678 16.0012 15.1042 16.1549 15.1042 16.3151C15.1042 16.1549 15.0405 16.0012 14.9272 15.8879C14.8139 15.7746 14.6602 15.7109 14.5 15.7109C14.6602 15.7109 14.8139 15.6473 14.9272 15.534C15.0405 15.4207 15.1042 15.267 15.1042 15.1068C15.1042 14.9465 15.0405 14.7929 14.9272 14.6796C14.8139 14.5663 14.6602 14.5026 14.5 14.5026C14.6602 14.5026 14.8139 14.439 14.9272 14.3256C15.0405 14.2123 15.1042 14.0587 15.1042 13.8984C15.1042 14.0587 15.1678 14.2123 15.2811 14.3256C15.3944 14.439 15.5481 14.5026 15.7083 14.5026C15.8686 14.5026 16.0222 14.439 16.1355 14.3256C16.2488 14.2123 16.3125 14.0587 16.3125 13.8984C16.3125 13.7382 16.2488 13.5845 16.1355 13.4712C16.0222 13.3579 15.8686 13.2943 15.7083 13.2943C15.5481 13.2943 15.3944 13.3579 15.2811 13.4712C15.1678 13.5845 15.1042 13.7382 15.1042 13.8984C15.1042 13.7382 15.0405 13.5845 14.9272 13.4712C14.8139 13.3579 14.6602 13.2943 14.5 13.2943C14.6602 13.2943 14.8139 13.2306 14.9272 13.1173C15.0405 13.004 15.1042 12.8503 15.1042 12.6901C15.1042 12.5299 15.0405 12.3762 14.9272 12.2629C14.8139 12.1496 14.6602 12.0859 14.5 12.0859C14.6602 12.0859 14.8139 12.0223 14.9272 11.909C15.0405 11.7957 15.1042 11.642 15.1042 11.4818C15.1042 11.3215 15.0405 11.1679 14.9272 11.0546C14.8139 10.9413 14.6602 10.8776 14.5 10.8776C14.6195 10.8776 14.7363 10.8422 14.8357 10.7758C14.935 10.7094 15.0124 10.615 15.0582 10.5046C15.1039 10.3942 15.1159 10.2728 15.0926 10.1556C15.0692 10.0384 15.0117 9.93072 14.9272 9.84623C14.8427 9.76173 14.7351 9.70419 14.6179 9.68088C14.5007 9.65757 14.3792 9.66953 14.2688 9.71526C14.1584 9.76099 14.064 9.83843 13.9977 9.93778C13.9313 10.0371 13.8958 10.1539 13.8958 10.2734C13.8958 10.1132 13.8322 9.95953 13.7189 9.84623C13.6056 9.73292 13.4519 9.66927 13.2917 9.66927C13.4519 9.66927 13.6056 9.60562 13.7189 9.49231C13.8322 9.37901 13.8958 9.22534 13.8958 9.0651C13.8958 8.90487 13.8322 8.7512 13.7189 8.63789C13.6056 8.52459 13.4519 8.46094 13.2917 8.46094C13.1314 8.46094 12.9778 8.52459 12.8645 8.63789C12.7512 8.7512 12.6875 8.90487 12.6875 9.0651C12.6875 9.22534 12.7512 9.37901 12.8645 9.49231C12.9778 9.60562 13.1314 9.66927 13.2917 9.66927C13.1722 9.66927 13.0554 9.7047 12.956 9.77109C12.8567 9.83748 12.7792 9.93184 12.7335 10.0422C12.6878 10.1526 12.6758 10.2741 12.6991 10.3913C12.7224 10.5085 12.78 10.6162 12.8645 10.7006C12.949 10.7851 13.0566 10.8427 13.1738 10.866C13.291 10.8893 13.4125 10.8773 13.5229 10.8316C13.6333 10.7859 13.7276 10.7084 13.794 10.6091C13.8604 10.5097 13.8958 10.3929 13.8958 10.2734C13.8958 10.4337 13.9595 10.5873 14.0728 10.7006C14.1861 10.814 14.3398 10.8776 14.5 10.8776C14.3398 10.8776 14.1861 10.9413 14.0728 11.0546C13.9595 11.1679 13.8958 11.3215 13.8958 11.4818C13.8958 11.642 13.9595 11.7957 14.0728 11.909C14.1861 12.0223 14.3398 12.0859 14.5 12.0859C14.3398 12.0859 14.1861 12.1496 14.0728 12.2629C13.9595 12.3762 13.8958 12.5299 13.8958 12.6901C13.8958 12.5299 13.8322 12.3762 13.7189 12.2629C13.6056 12.1496 13.4519 12.0859 13.2917 12.0859C13.1314 12.0859 12.9778 12.1496 12.8645 12.2629C12.7512 12.3762 12.6875 12.5299 12.6875 12.6901C12.6875 12.8503 12.7512 13.004 12.8645 13.1173C12.9778 13.2306 13.1314 13.2943 13.2917 13.2943C13.4519 13.2943 13.6056 13.2306 13.7189 13.1173C13.8322 13.004 13.8958 12.8503 13.8958 12.6901C13.8958 12.8503 13.9595 13.004 14.0728 13.1173C14.1861 13.2306 14.3398 13.2943 14.5 13.2943C14.3398 13.2943 14.1861 13.3579 14.0728 13.4712C13.9595 13.5845 13.8958 13.7382 13.8958 13.8984C13.8958 14.0587 13.9595 14.2123 14.0728 14.3256C14.1861 14.439 14.3398 14.5026 14.5 14.5026C14.3398 14.5026 14.1861 14.5663 14.0728 14.6796C13.9595 14.7929 13.8958 14.9465 13.8958 15.1068ZM13.8958 18.7318C13.8958 18.892 13.9595 19.0457 14.0728 19.159C14.1861 19.2723 14.3398 19.3359 14.5 19.3359C14.3398 19.3359 14.1861 19.3996 14.0728 19.5129C13.9595 19.6262 13.8958 19.7799 13.8958 19.9401C13.8958 19.7799 13.8322 19.6262 13.7189 19.5129C13.6056 19.3996 13.4519 19.3359 13.2917 19.3359C13.1314 19.3359 12.9778 19.3996 12.8645 19.5129C12.7512 19.6262 12.6875 19.7799 12.6875 19.9401C12.6875 20.1003 12.7512 20.254 12.8645 20.3673C12.9778 20.4806 13.1314 20.5443 13.2917 20.5443C13.4519 20.5443 13.6056 20.4806 13.7189 20.3673C13.8322 20.254 13.8958 20.1003 13.8958 19.9401C13.8958 20.0596 13.9313 20.1764 13.9977 20.2758C14.064 20.3751 14.1584 20.4526 14.2688 20.4983C14.3792 20.544 14.5007 20.556 14.6179 20.5327C14.7351 20.5094 14.8427 20.4518 14.9272 20.3673C15.0117 20.2828 15.0692 20.1752 15.0926 20.058C15.1159 19.9408 15.1039 19.8193 15.0582 19.7089C15.0124 19.5985 14.935 19.5041 14.8357 19.4378C14.7363 19.3714 14.6195 19.3359 14.5 19.3359C14.6602 19.3359 14.8139 19.2723 14.9272 19.159C15.0405 19.0457 15.1042 18.892 15.1042 18.7318C15.1042 18.892 15.1678 19.0457 15.2811 19.159C15.3944 19.2723 15.5481 19.3359 15.7083 19.3359C15.8686 19.3359 16.0222 19.2723 16.1355 19.159C16.2488 19.0457 16.3125 18.892 16.3125 18.7318C16.3125 18.5715 16.2488 18.4179 16.1355 18.3046C16.0222 18.1913 15.8686 18.1276 15.7083 18.1276C15.5481 18.1276 15.3944 18.1913 15.2811 18.3046C15.1678 18.4179 15.1042 18.5715 15.1042 18.7318C15.1042 18.5715 15.0405 18.4179 14.9272 18.3046C14.8139 18.1913 14.6602 18.1276 14.5 18.1276C14.3398 18.1276 14.1861 18.1913 14.0728 18.3046C13.9595 18.4179 13.8958 18.5715 13.8958 18.7318Z" fill="#C6C6C6"/>
<path id="Vector_5" d="M16.9167 15.7057C16.7564 15.7057 16.6028 15.6421 16.4895 15.5288C16.3762 15.4155 16.3125 15.2618 16.3125 15.1016C16.3125 14.9413 16.3762 14.7877 16.4895 14.6744C16.6028 14.561 16.7564 14.4974 16.9167 14.4974C17.0769 14.4974 17.2306 14.561 17.3439 14.6744C17.4572 14.7877 17.5208 14.9413 17.5208 15.1016C17.5208 15.2618 17.4572 15.4155 17.3439 15.5288C17.2306 15.6421 17.0769 15.7057 16.9167 15.7057ZM17.5208 13.8932C17.5208 14.0535 17.5845 14.2071 17.6978 14.3204C17.8111 14.4337 17.9648 14.4974 18.125 14.4974C18.2852 14.4974 18.4389 14.4337 18.5522 14.3204C18.6655 14.2071 18.7292 14.0535 18.7292 13.8932C18.7292 14.0535 18.7928 14.2071 18.9061 14.3204C19.0194 14.4337 19.1731 14.4974 19.3333 14.4974C19.1731 14.4974 19.0194 14.561 18.9061 14.6744C18.7928 14.7877 18.7292 14.9413 18.7292 15.1016C18.7292 15.2618 18.7928 15.4155 18.9061 15.5288C19.0194 15.6421 19.1731 15.7057 19.3333 15.7057C19.4936 15.7057 19.6472 15.6421 19.7605 15.5288C19.8738 15.4155 19.9375 15.2618 19.9375 15.1016C19.9375 14.9413 19.8738 14.7877 19.7605 14.6744C19.6472 14.561 19.4936 14.4974 19.3333 14.4974C19.4528 14.4974 19.5696 14.462 19.669 14.3956C19.7683 14.3292 19.8458 14.2348 19.8915 14.1244C19.9372 14.014 19.9492 13.8926 19.9259 13.7754C19.9026 13.6582 19.845 13.5505 19.7605 13.466C19.6761 13.3815 19.5684 13.324 19.4512 13.3007C19.334 13.2774 19.2125 13.2893 19.1021 13.3351C18.9917 13.3808 18.8974 13.4582 18.831 13.5576C18.7646 13.6569 18.7292 13.7737 18.7292 13.8932C18.7292 13.733 18.6655 13.5793 18.5522 13.466C18.4389 13.3527 18.2852 13.2891 18.125 13.2891C17.9648 13.2891 17.8111 13.3527 17.6978 13.466C17.5845 13.5793 17.5208 13.733 17.5208 13.8932ZM17.5208 19.9349C17.5208 20.0951 17.5845 20.2488 17.6978 20.3621C17.8111 20.4754 17.9648 20.5391 18.125 20.5391C18.2852 20.5391 18.4389 20.4754 18.5522 20.3621C18.6655 20.2488 18.7292 20.0951 18.7292 19.9349C18.7292 20.0951 18.7928 20.2488 18.9061 20.3621C19.0194 20.4754 19.1731 20.5391 19.3333 20.5391C19.4936 20.5391 19.6472 20.4754 19.7605 20.3621C19.8738 20.2488 19.9375 20.0951 19.9375 19.9349C19.9375 19.7747 19.8738 19.621 19.7605 19.5077C19.6472 19.3944 19.4936 19.3307 19.3333 19.3307C19.1731 19.3307 19.0194 19.3944 18.9061 19.5077C18.7928 19.621 18.7292 19.7747 18.7292 19.9349C18.7292 19.7747 18.6655 19.621 18.5522 19.5077C18.4389 19.3944 18.2852 19.3307 18.125 19.3307C17.9648 19.3307 17.8111 19.3944 17.6978 19.5077C17.5845 19.621 17.5208 19.7747 17.5208 19.9349ZM16.3125 17.5182C16.3125 17.6785 16.3762 17.8321 16.4895 17.9454C16.6028 18.0587 16.7564 18.1224 16.9167 18.1224C17.0769 18.1224 17.2306 18.0587 17.3439 17.9454C17.4572 17.8321 17.5208 17.6785 17.5208 17.5182C17.5208 17.6785 17.5845 17.8321 17.6978 17.9454C17.8111 18.0587 17.9648 18.1224 18.125 18.1224C18.2852 18.1224 18.4389 18.0587 18.5522 17.9454C18.6655 17.8321 18.7292 17.6785 18.7292 17.5182C18.7292 17.6785 18.7928 17.8321 18.9061 17.9454C19.0194 18.0587 19.1731 18.1224 19.3333 18.1224C19.4936 18.1224 19.6472 18.0587 19.7605 17.9454C19.8738 17.8321 19.9375 17.6785 19.9375 17.5182C19.9375 17.358 19.8738 17.2043 19.7605 17.091C19.6472 16.9777 19.4936 16.9141 19.3333 16.9141C19.1731 16.9141 19.0194 16.9777 18.9061 17.091C18.7928 17.2043 18.7292 17.358 18.7292 17.5182C18.7292 17.358 18.6655 17.2043 18.5522 17.091C18.4389 16.9777 18.2852 16.9141 18.125 16.9141C17.9648 16.9141 17.8111 16.9777 17.6978 17.091C17.5845 17.2043 17.5208 17.358 17.5208 17.5182C17.5208 17.358 17.4572 17.2043 17.3439 17.091C17.2306 16.9777 17.0769 16.9141 16.9167 16.9141C16.7564 16.9141 16.6028 16.9777 16.4895 17.091C16.3762 17.2043 16.3125 17.358 16.3125 17.5182Z" fill="#C6C6C6"/>
<path id="Vector_6" fill-rule="evenodd" clip-rule="evenodd" d="M16.3125 9.0651C16.3125 8.90487 16.3762 8.7512 16.4895 8.63789C16.6028 8.52459 16.7564 8.46094 16.9167 8.46094H19.3333C19.4936 8.46094 19.6472 8.52459 19.7605 8.63789C19.8738 8.7512 19.9375 8.90487 19.9375 9.0651V11.4818C19.9375 11.642 19.8738 11.7957 19.7605 11.909C19.6472 12.0223 19.4936 12.0859 19.3333 12.0859H16.9167C16.7564 12.0859 16.6028 12.0223 16.4895 11.909C16.3762 11.7957 16.3125 11.642 16.3125 11.4818V9.0651ZM17.5208 10.8776V9.66927H18.7292V10.8776H17.5208Z" fill="#C6C6C6"/>
<path id="Vector_7" d="M3.625 23.5625C3.625 24.0432 3.81596 24.5042 4.15587 24.8441C4.49578 25.184 4.9568 25.375 5.4375 25.375H9.0625V24.1667H5.4375C5.27727 24.1667 5.12359 24.103 5.01029 23.9897C4.89699 23.8764 4.83333 23.7227 4.83333 23.5625V19.9375H3.625V23.5625ZM25.375 5.4375C25.375 4.9568 25.184 4.49578 24.8441 4.15587C24.5042 3.81596 24.0432 3.625 23.5625 3.625H19.9375V4.83333H23.5625C23.7227 4.83333 23.8764 4.89699 23.9897 5.01029C24.103 5.12359 24.1667 5.27727 24.1667 5.4375V9.0625H25.375V5.4375ZM25.375 23.5625C25.375 24.0432 25.184 24.5042 24.8441 24.8441C24.5042 25.184 24.0432 25.375 23.5625 25.375H19.9375V24.1667H23.5625C23.7227 24.1667 23.8764 24.103 23.9897 23.9897C24.103 23.8764 24.1667 23.7227 24.1667 23.5625V19.9375H25.375V23.5625Z" fill="#C6C6C6"/>
</g>
</g>
</g>
</g>
</g>
</g>
</svg>
